<?xml version="1.0" encoding="utf-8"?>
<!-- Generator: Adobe Illustrator 24.2.3, SVG Export Plug-In . SVG Version: 6.00 Build 0)  -->
<svg version="1.1" id="Layer_1" xmlns="http://www.w3.org/2000/svg" xmlns:xlink="http://www.w3.org/1999/xlink" x="0px" y="0px"
	 viewBox="0 0 1068.4 279.2" style="enable-background:new 0 0 1068.4 279.2;" xml:space="preserve">
<style type="text/css">
	.st0{fill:none;stroke:#444444;stroke-width:3;stroke-miterlimit:10;}
	.st1{fill:#444444;}
</style>
<g>
	<path class="st0" d="M172.2,231.6c-52.1,21.2-111.5-3.9-132.7-56s3.9-111.5,56-132.7c24.8-10.1,52.6-10,77.4,0.3"/>
	<path class="st0" d="M178.9,252.1C115.4,277,43.8,245.7,19,182.2C-5.9,118.7,25.4,47.1,88.9,22.3c29.1-11.4,61.4-11.3,90.4,0.2"/>
	<path class="st0" d="M165.7,211.4c-41,17.6-88.5-1.4-106.1-42.5S61,80.4,102.1,62.8c20.7-8.9,44.1-8.7,64.6,0.4"/>
	<path class="st0" d="M339.1,231.6c-52.1,21.2-111.5-3.9-132.7-56s3.9-111.6,56-132.8c24.8-10.1,52.6-10,77.4,0.3"/>
	<path class="st0" d="M345.8,252.1c-63.5,24.8-135.1-6.5-159.9-70s6.5-135.1,70-159.9c29.1-11.4,61.4-11.3,90.4,0.2"/>
	<path class="st0" d="M332.6,211.4c-41,17.6-88.5-1.4-106.1-42.5s1.4-88.5,42.5-106.1c20.7-8.9,44.1-8.7,64.6,0.4"/>
	<line class="st0" x1="370.9" y1="11.9" x2="370.9" y2="262.3"/>
	<line class="st0" x1="393.8" y1="11.9" x2="393.8" y2="262.3"/>
	<line class="st0" x1="414.2" y1="11.9" x2="414.2" y2="262.3"/>
</g>
<g>
	<path class="st1" d="M470.3,40.4c0-17.8,10.1-29.4,25.2-29.4c11.6,0,20.8,6.8,23.3,20h-4.6c-2.3-10.6-9.6-15.6-18.5-15.6
		c-12.5,0-20.4,9.8-20.4,25.2s7.8,25,20.3,25c9.4,0,17.5-6.1,19-17.5h4.6c-1.4,14-11.6,21.9-23.6,21.9
		C480.4,69.8,470.3,58.2,470.3,40.4z"/>
	<path class="st1" d="M533.6,16.5V37h29.8v4.3h-29.8v23h32.9v4.2h-37.5V12.3h37.5v4.2C566.4,16.5,533.6,16.5,533.6,16.5z"/>
	<path class="st1" d="M618,12.3v56.2h-5.8l-23.6-35.6c-3.2-4.8-6.8-10.6-9.1-14.8c0,7.7,0,14.9,0,20.4v30.1h-4.6V12.3h5.8L604.4,48
		c3.2,4.8,6.8,10.6,9.1,14.8c-0.1-7.7-0.1-15.1-0.1-20.4v-30H618z"/>
	<path class="st1" d="M670.5,16.5h-19.8v52h-4.8v-52h-19.7v-4.2h44.3V16.5z"/>
	<path class="st1" d="M683.3,16.5V37h29.8v4.3h-29.8v23h33v4.2h-37.6V12.3h37.6v4.2C716.3,16.5,683.3,16.5,683.3,16.5z"/>
	<path class="st1" d="M767.1,68.5h-4.9c-1.3-2.2-1.9-4.5-1.7-6.9l-0.3-7.2c-0.3-7.7-3.3-10.9-11.4-10.9h-19.3v25h-4.6V12.3h23
		c10.7,0,18.1,5.1,18.1,15.1c0,7.8-4.2,12.3-10.4,13.9c6.2,1.3,8.7,5.2,9.1,11.3l0.4,9.3C765,64.2,765.8,66.5,767.1,68.5z M761,27.7
		c0-7.7-5.4-11-13.3-11h-18.4v22.7h18.8C755.6,39.4,761,35.5,761,27.7z"/>
	<path class="st1" d="M791.3,40.4c0-17.2,10.1-29.4,26.1-29.4s26.1,12.2,26.1,29.4s-10.1,29.4-26.1,29.4S791.3,57.8,791.3,40.4z
		 M838.6,40.4c0-15.1-8.3-25.2-21.1-25.2c-12.9,0-21.1,10.1-21.1,25.2s8.3,25,21.1,25C830.3,65.5,838.6,55.5,838.6,40.4z"/>
	<path class="st1" d="M858.3,16.5V37h27.8v4.3h-27.8v27.2h-4.6V12.3h35.8v4.2C889.4,16.5,858.3,16.5,858.3,16.5z"/>
	<path class="st1" d="M470.3,127.3c0-17.8,10.1-29.4,25.2-29.4c11.6,0,20.8,6.8,23.3,20h-4.6c-2.3-10.6-9.6-15.6-18.5-15.6
		c-12.5,0-20.4,9.8-20.4,25s7.8,25,20.4,25c9.4,0,17.5-6.1,19-17.5h4.6c-1.4,14-11.6,21.9-23.6,21.9
		C480.4,156.7,470.3,145.1,470.3,127.3z"/>
	<path class="st1" d="M526.5,127.3c0-17.4,10.1-29.4,26.1-29.4c15.9,0,26.1,12,26.1,29.4s-10.1,29.4-26.1,29.4
		C536.6,156.7,526.5,144.7,526.5,127.3z M573.7,127.3c0-15.1-8.3-25.2-21.1-25.2c-12.9,0-21.3,10.1-21.3,25.2s8.3,25,21.3,25
		S573.7,142.3,573.7,127.3z"/>
	<path class="st1" d="M643.9,99.2v56.2h-4.5v-29.5c0-5.4,0-12.5,0.1-20.1c-1.2,3.2-2.3,6.2-3.8,9.8l-17.2,39.8h-4.1L597,115.6
		c-1.4-3.6-2.6-6.7-3.8-9.8c0.1,7.5,0.1,14.8,0.1,20.1v29.5h-4.5V99.2h6.1l16.6,38.4c1.7,4.2,3.6,8.8,4.9,12.3
		c1.3-3.5,3.3-8.7,5.1-12.9l16.2-37.8C637.8,99.2,643.9,99.2,643.9,99.2z"/>
	<path class="st1" d="M696.9,116c0,10-6.2,16.8-17.8,16.8h-18v22.7h-4.6V99.2h22.6C690.8,99.2,696.9,105.9,696.9,116z M692.1,116
		c0-8-4.6-12.5-13-12.5H661v25h18C687.5,128.4,692.1,123.8,692.1,116z"/>
	<path class="st1" d="M739,151.2v4.2h-33.3V99.2h4.6v52H739z"/>
	<path class="st1" d="M751.7,103.4v20.4h29.8v4.3h-29.8v23h33v4.2h-37.6V99.2h37.6v4.2L751.7,103.4L751.7,103.4z"/>
	<path class="st1" d="M838,155.4h-5.5l-9.1-12.9l-8.8-12.6c-2.6,3.8-5.8,8.3-9,12.6l-9.3,12.9h-5.2l20.7-29l-19.5-27.2h5.5l8.1,11.6
		c2.9,4.1,6.1,8.5,8.7,12.3c2.5-3.8,5.6-8.3,8.3-11.7l8.7-12.2h5.2l-19.4,27.1L838,155.4z"/>
	<path class="st1" d="M472.5,186.1h4.6v56.2h-4.6V186.1z"/>
	<path class="st1" d="M533,186.1v56.2h-5.6l-23.7-35.6c-3.2-4.8-6.8-10.6-9.1-14.8c0.1,7.7,0.1,15.1,0.1,20.4v30.1H490v-56.2h5.5
		l23.7,35.6c3.2,4.8,6.8,10.6,9.1,14.8c-0.1-7.7-0.1-15.1-0.1-20.4v-30.1H533z"/>
	<path class="st1" d="M585.4,190.3h-19.7v52h-4.8v-52h-19.8v-4.2h44.3V190.3z"/>
	<path class="st1" d="M598.3,190.3v20.4h29.8v4.3h-29.8v23h33v4.2h-37.6v-56.2h37.6v4.2L598.3,190.3L598.3,190.3z"/>
	<path class="st1" d="M682,242.2H677c-1.3-2-1.9-4.5-1.7-6.9L675,228c-0.3-7.7-3.3-10.9-11.4-10.9h-19.4v25h-4.6v-56.2h23
		c10.7,0,18.1,5.1,18.1,15.1c0,7.8-4.2,12.3-10.4,13.8c6.2,1.3,8.8,5.1,9.1,11.3l0.4,9.3C679.9,237.9,680.6,240.2,682,242.2z
		 M675.9,201.4c0-7.7-5.4-11-13.3-11h-18.4v22.7H663C670.7,213.1,675.9,209.2,675.9,201.4L675.9,201.4z"/>
	<path class="st1" d="M733.2,186.1l-21,56.2H707l-21.3-56.2h4.9l14.6,39.1c1.6,4.2,3,8.4,4.3,12.5c1.3-4.1,2.8-8.3,4.3-12.5
		l14.5-39.1H733.2z"/>
	<path class="st1" d="M745.8,190.3v20.4h29.8v4.3h-29.8v23h33v4.2h-37.6v-56.2h37.6v4.2L745.8,190.3L745.8,190.3z"/>
	<path class="st1" d="M830.3,186.1v56.2h-5.6L801,206.6c-3.2-4.8-6.8-10.6-9.1-14.8c0.1,7.7,0.1,15.1,0.1,20.4v30.1h-4.6v-56.2h5.6
		l23.7,35.6c3.2,4.8,6.8,10.6,9.1,14.8c-0.1-7.7-0.1-15.1-0.1-20.4v-30.1H830.3z"/>
	<path class="st1" d="M882.7,190.3h-19.8v52h-4.8v-52h-19.7v-4.2h44.3V190.3z"/>
	<path class="st1" d="M891,186.1h4.6v56.2H891V186.1z"/>
	<path class="st1" d="M905.6,214.1c0-17.4,10.1-29.4,26.1-29.4s26.1,12.2,26.1,29.4s-10.1,29.4-26.1,29.4S905.6,231.5,905.6,214.1z
		 M952.8,214.1c0-15.1-8.3-25.2-21.3-25.2c-13,0-21.1,10.1-21.1,25.2c0,15.1,8.3,25,21.1,25C944.4,239.2,952.8,229.2,952.8,214.1z"
		/>
	<path class="st1" d="M1011,186.1v56.2h-5.8l-23.7-35.6c-3.2-4.8-6.8-10.6-9.1-14.8c0.1,7.7,0.1,15.1,0.1,20.4v30.1h-4.6v-56.2h5.6
		l23.7,35.6c3.2,4.8,6.8,10.6,9.1,14.8c-0.1-7.7-0.1-15.1-0.1-20.4v-30.1H1011z"/>
	<path class="st1" d="M1020.7,225h4.8c0.4,10.1,7.1,14.2,17.8,14.2c10.3,0,15.6-4.5,15.6-11.7c0-5.9-3.6-9.3-14.3-11.6l-5.5-1.2
		c-10.3-2.2-16.5-6.4-16.5-15.8c0-8.7,6.9-14.3,18.8-14.3c15.2,0,20.6,7.8,20.7,16.6h-4.8c-0.3-7.5-4.6-12.3-15.9-12.3
		c-9.4,0-14,4.2-14,10.1s3.2,9.3,13.8,11.6l5.5,1.2c12.9,2.8,17.1,7.8,17.1,15.6c0,9.4-7.1,16.1-20.4,16.1
		C1029.5,243.5,1021.3,237.9,1020.7,225z"/>
</g>
</svg>
