<svg width="32" height="32" viewBox="0 0 32 32" fill="none" xmlns="http://www.w3.org/2000/svg">
<path fill-rule="evenodd" clip-rule="evenodd" d="M6.56479 8.98018C5.77519 10.0111 5.33335 11.4646 5.33335 13.0222C5.33335 14.5853 5.94822 16.1812 6.98701 17.7513C8.02331 19.3176 9.42955 20.7787 10.8773 22.0436C12.3199 23.3041 13.769 24.3396 14.8603 25.0612C15.3128 25.3603 15.7015 25.604 16 25.7859C16.2986 25.604 16.6872 25.3603 17.1398 25.0612C18.2311 24.3396 19.6802 23.3041 21.1227 22.0436C22.5706 20.7787 23.9767 19.3176 25.0131 17.7513C26.0518 16.1812 26.6667 14.5853 26.6667 13.0222C26.6667 11.4622 26.2278 10.0089 25.4407 8.97912C24.6824 7.98712 23.5676 7.33332 22 7.33332C20.3958 7.33332 19.1874 7.99616 18.3536 8.69095C17.9359 9.039 17.6224 9.38758 17.4162 9.64542C17.3136 9.77362 17.2392 9.87724 17.1934 9.94414C17.1706 9.97751 17.1548 10.0015 17.1464 10.0146C17.1435 10.0193 17.1415 10.0226 17.1403 10.0244L16.0048 11.917L14.8622 10.0284C14.8611 10.0266 14.859 10.0233 14.8559 10.0185C14.8474 10.0052 14.8315 9.9811 14.8083 9.94759C14.762 9.88044 14.687 9.77654 14.5836 9.64806C14.3758 9.38963 14.0604 9.04043 13.6412 8.69183C12.8038 7.99536 11.5951 7.33332 10 7.33332C8.44202 7.33332 7.32618 7.9861 6.56479 8.98018ZM16 27.3333C15.3531 28.4992 15.3528 28.4991 15.3524 28.4988L15.3487 28.4968C15.3466 28.4956 15.3436 28.4939 15.3399 28.4919C15.3327 28.4877 15.3226 28.4821 15.3096 28.4748C15.2838 28.4603 15.247 28.4392 15.1996 28.412C15.1052 28.3576 14.9694 28.2783 14.798 28.1755C14.4556 27.9697 13.9703 27.6695 13.3898 27.2857C12.2311 26.5197 10.6801 25.4125 9.12275 24.0517C7.57049 22.6956 5.97673 21.0572 4.76303 19.2227C3.55182 17.392 2.66669 15.2857 2.66669 13.0222C2.66669 11.002 3.23318 8.94444 4.44775 7.35868C5.69053 5.73611 7.57469 4.66666 10 4.66666C12.3883 4.66666 14.1796 5.67128 15.3463 6.64148C15.5884 6.84282 15.8055 7.04406 15.9976 7.2368C16.1891 7.0443 16.4052 6.84338 16.6464 6.64236C17.8127 5.67048 19.6043 4.66666 22 4.66666C24.4324 4.66666 26.3176 5.73508 27.5594 7.35975C28.7723 8.94662 29.3334 11.0044 29.3334 13.0222C29.3334 15.2857 28.4483 17.392 27.237 19.2227C26.0234 21.0572 24.4295 22.6956 22.8774 24.0517C21.3199 25.4125 19.769 26.5197 18.6103 27.2857C18.0298 27.6695 17.5444 27.9697 17.202 28.1755C17.0307 28.2783 16.8948 28.3576 16.8004 28.412C16.7531 28.4392 16.7163 28.4603 16.6904 28.4748C16.6843 28.4783 16.6788 28.4813 16.674 28.484C16.6686 28.4871 16.6639 28.4897 16.6602 28.4919C16.6564 28.4939 16.6535 28.4956 16.6514 28.4968L16.6476 28.4988C16.6472 28.4991 16.647 28.4992 16 27.3333ZM16 27.3333L16.647 28.4992L16 28.8581L15.3531 28.4992L16 27.3333Z" fill="#25292E"/>
</svg>
