<svg width="32" height="32" viewBox="0 0 32 32" fill="none" xmlns="http://www.w3.org/2000/svg">
<g clip-path="url(#clip0_137_73)">
<path d="M15.9875 20.5834C15.8849 24.141 16.0133 27.7234 16.3721 28.5941C16.7311 29.4648 17.4995 31.1582 20.1418 30.6091C22.3493 30.15 23.1525 29.2615 23.5011 27.3004C23.7578 25.8575 24.2526 21.8504 24.3161 21.0294" stroke="#25292E" stroke-width="2" stroke-linecap="round" stroke-linejoin="round"/>
<path d="M12.8204 2.74861C12.8204 2.74861 0.857878 -1.99453 1.41401 8.79169C1.53229 11.0864 4.80449 26.1548 8.70711 21.6034C10.1332 19.939 11.423 18.6335 11.423 18.6335" stroke="#25292E" stroke-width="2" stroke-linecap="round" stroke-linejoin="round"/>
<path d="M19.2819 1.88291C18.8679 2.00886 25.9363 -0.623803 29.9533 4.35571C31.3723 6.11485 29.7279 13.3022 25.7945 18.9645" stroke="#25292E" stroke-width="2" stroke-linecap="round" stroke-linejoin="round"/>
<path d="M25.7944 18.9646C25.7944 18.9646 26.0508 20.1886 29.7763 19.4426C31.4086 19.1155 30.4263 20.3603 28.7708 21.1062C27.4121 21.7179 24.366 21.8747 24.3162 21.0294C24.1882 18.8484 25.9195 19.511 25.7945 18.9646C25.6816 18.4724 24.9073 17.9894 24.3952 16.7848C23.9481 15.7335 18.2632 7.67094 25.9717 8.86836C26.2541 8.81167 23.9613 1.75524 16.7471 1.6405C9.53459 1.52575 9.77122 10.2452 9.77122 10.2452" stroke="#25292E" stroke-width="2" stroke-linecap="round" stroke-linejoin="bevel"/>
<path d="M13.9684 19.7104C12.9628 20.8001 13.2586 20.9914 11.2486 21.3929C9.21493 21.7995 10.4098 22.5233 11.1896 22.7124C12.1352 22.9419 14.3229 23.2669 15.8011 21.259C16.2513 20.6476 15.7984 19.6721 15.1801 19.4235C14.8813 19.3034 14.4818 19.1529 13.9684 19.7104V19.7104Z" stroke="#25292E" stroke-width="2" stroke-linecap="round" stroke-linejoin="round"/>
<path d="M13.9026 19.6914C13.8012 19.0507 14.1196 18.2883 14.4607 17.3964C14.9733 16.0581 16.1562 14.7197 15.21 10.4746C14.5047 7.31119 9.77412 9.81625 9.77116 10.2452C9.76827 10.674 9.98513 12.4193 9.69214 14.4518C9.30983 17.1039 11.4317 19.3469 13.8751 19.1174" stroke="#25292E" stroke-width="2" stroke-linecap="round" stroke-linejoin="round"/>
<path d="M12.777 10.1809C12.7556 10.3274 13.0534 10.7183 13.4417 10.7706C13.8294 10.823 14.1612 10.5175 14.1822 10.3712C14.2032 10.2247 13.9058 10.0633 13.5174 10.0108C13.1295 9.95832 12.7975 10.0348 12.777 10.1809Z" fill="#25292E"/>
<path d="M24.5842 9.88223C24.6052 10.0287 24.3078 10.4197 23.9194 10.4719C23.5315 10.5243 23.1997 10.2188 23.1784 10.0725C23.1579 9.92599 23.4554 9.76462 23.8434 9.71217C24.2314 9.65972 24.5632 9.7361 24.5842 9.88231V9.88223Z" fill="#25292E"/>
<path d="M25.9717 8.86835C26.0357 10.0175 25.7166 10.8002 25.6764 12.0235C25.6168 13.8016 26.5502 15.8368 25.1438 17.8745" stroke="#25292E" stroke-width="2" stroke-linecap="round" stroke-linejoin="round"/>
</g>
<defs>
<clipPath id="clip0_137_73">
<rect width="32" height="32" fill="white"/>
</clipPath>
</defs>
</svg>
