<svg width="32" height="32" viewBox="0 0 32 32" fill="none" xmlns="http://www.w3.org/2000/svg">
<path d="M21.632 10.3669C20.981 9.71604 19.9258 9.71604 19.2749 10.3669C18.6241 11.0178 18.6241 12.0731 19.2749 12.7239C19.9258 13.3748 20.981 13.3748 21.632 12.7239C22.2828 12.0731 22.2828 11.0178 21.632 10.3669Z" fill="#25292E"/>
<path fill-rule="evenodd" clip-rule="evenodd" d="M28.3267 3.67227L27.1471 14.2881L23.5873 17.7607L25.314 23.6555L19.2749 29.6945L15.3633 25.7829L12.2731 28.7973L2.8449 19.3691L5.9351 16.3547L2.30438 12.7239L8.34343 6.68486L14.1149 8.37549L17.7293 4.84977L28.3267 3.67227ZM17.2724 23.9207L21.4261 19.8688L22.3104 22.8879L19.2749 25.9233L17.2724 23.9207ZM11.9242 10.5125L7.84413 14.4924L6.07561 12.7239L9.11109 9.68844L11.9242 10.5125ZM18.9351 7.39887L6.63969 19.3927L12.2964 25.0493L24.6021 13.0454L25.3081 6.69074L18.9351 7.39887Z" fill="#25292E"/>
</svg>
