<svg width="32" height="32" viewBox="0 0 32 32" fill="none" xmlns="http://www.w3.org/2000/svg">
<path d="M14.4829 20.5494L22.3523 12.7026L20.4693 10.8143L14.4829 16.7836L11.5306 13.8397L9.64771 15.7281L14.4829 20.5494Z" fill="#25292E"/>
<path fill-rule="evenodd" clip-rule="evenodd" d="M20.8482 4.62713L16 2.54932L11.1517 4.62713L5.33331 3.79593V15.8664C5.33331 20.5492 7.85194 24.8703 11.9267 27.1781L16.0892 29.5356L20.1601 27.1884C24.186 24.8672 26.6666 20.5735 26.6666 15.9264V3.79593L20.8482 4.62713ZM11.5149 7.37274L16 5.45056L20.485 7.37274L24 6.87061V15.9264C24 19.6203 22.0282 23.0332 18.8281 24.8783L16.0774 26.4643L13.2409 24.8577C10.002 23.0233 7.99998 19.5887 7.99998 15.8664V6.87061L11.5149 7.37274Z" fill="#25292E"/>
</svg>
