<svg width="2375" height="2376" viewBox="0 0 2375 2376" fill="none" xmlns="http://www.w3.org/2000/svg">
<path fill-rule="evenodd" clip-rule="evenodd" d="M365.475 2149.01L644.03 2147.45C648.615 2148.04 690.818 2139.6 688.354 2115.93C683.137 2065.83 751.091 1814.58 790.83 1824.44C813.697 1830.11 836.818 1893.88 901.044 1874.03C970.091 1852.68 976.447 1769.21 1012.02 1747.63C1034.68 1733.88 1029.33 1760.27 1033.04 1803.83C1039.07 1874.95 1060.13 2157.34 1120.94 2154.99H1397.03C1410.17 2154.95 1422.25 2150.2 1431.65 2142.14C1440.99 2134.12 1447.61 2122.73 1449.86 2109.47C1472.75 1975.17 1511.4 1733.2 1566.21 1633.83L1576.52 1615.52C1648.63 1490.27 1743.98 1378.56 1856.5 1246.75C1866.7 1234.8 1880.26 1216.29 1890.85 1203.85C1894.1 1200.06 1895.14 1195.21 1893.78 1190.34C1892.42 1185.47 1889.03 1181.89 1884.3 1180.35C1843.68 1167.24 1810.25 1154.89 1790.38 1137.44C1788.26 1135.61 1787.42 1132.86 1788.09 1130.09C1788.78 1127.34 1790.8 1125.37 1793.52 1124.77C1976.65 1085.49 2043.13 988.128 2091.21 852.017C2117.55 777.437 2125.77 702.037 2116.07 629.268C2106.43 556.892 2079.04 486.73 2034.06 422.158C2011.35 389.544 1986.6 361.982 1960.42 338.844C1819.37 214.272 1556.81 175.667 1386.11 285.757C1371.92 294.911 1392.57 335.415 1400.84 330.908C1572.35 237.132 1873.79 291.076 1860.21 509.156C1859.58 519.247 1857.61 529.603 1854.39 539.904C1868.14 542.535 1881.55 544.446 1894.21 544.725C1900.36 544.85 1905.58 547.298 1909.71 551.944C1913.85 556.6 1915.69 562.162 1915.23 568.393L1915.02 570.91C1914.14 582.437 1904.64 591.206 1893.29 590.927C1871.35 590.42 1851.71 588.092 1831.73 584.534C1826.89 591.206 1821.42 597.604 1815.43 603.593C1833.36 608.842 1849.93 614.98 1863.76 621.92C1873.04 626.579 1877.72 637.031 1875.08 647.202C1874.18 650.69 1873.3 654.107 1872.4 657.524C1870.77 663.816 1866.95 668.565 1861.25 671.44C1855.52 674.324 1849.47 674.496 1843.57 671.995C1815.1 659.91 1783.24 650.029 1752.13 642.081C1734.18 647.725 1714.33 650.308 1692.83 648.803C1667.16 646.971 1639.22 639.322 1609.52 624.006C1452.79 543.068 1263.63 485.894 1103.29 481.941C1031.87 480.204 966.512 489.114 912.996 511.37C803.186 557.017 779.528 641.637 773.549 745.253C783.207 937.532 833.407 1071 902.849 1157.44C952.751 1219.55 1012.7 1257.25 1074.42 1274.99C1136.04 1292.68 1199.59 1290.55 1256.7 1273.02C1316.32 1254.69 1368.7 1219.62 1404.14 1172.91C1413.11 1161.11 1429.22 1158.18 1441.69 1166.08L1441.93 1166.23C1449.08 1170.76 1453.55 1177.43 1455.05 1185.89C1456.58 1194.31 1454.71 1202.13 1449.59 1208.9C1406.76 1265.27 1344.23 1307.37 1273.38 1329.14C1206.41 1349.72 1131.74 1352.17 1059.23 1331.34C986.788 1310.53 916.628 1266.56 858.586 1194.31C789.492 1108.3 737.718 1014.88 720.641 847.631C580.705 909.536 313.717 1007.17 269.584 1226C228.257 1430.75 281.163 1938.53 348.232 2139.8C350.493 2146.6 358.406 2148.94 365.475 2149.01ZM1557.58 740.729C1527.35 765.581 1522.69 810.846 1547.2 841.851C1571.71 872.855 1562.08 820.881 1592.3 796.04C1622.55 771.188 1681.21 782.856 1656.72 751.874C1632.19 720.871 1587.82 715.901 1557.58 740.729ZM1501.94 2154.94H1641.37C1677.62 2155.17 1701.36 2154.28 1688.14 2113.35C1657.33 2017.94 1590.85 1861.26 1576.08 1744.46C1544.27 1816.83 1528.47 2030.71 1512.98 2121.5C1510.81 2134.31 1507.74 2144.15 1501.94 2154.94Z" fill="#EB5441"/>
</svg>
