<svg width="23" height="24" viewBox="0 0 23 24" fill="none" xmlns="http://www.w3.org/2000/svg">
<path fill-rule="evenodd" clip-rule="evenodd" d="M1.36257 23.8176L4.79823 23.7983C4.85478 23.8055 5.37531 23.7013 5.34491 23.4089C5.28056 22.79 6.1187 19.6862 6.60881 19.808C6.89085 19.878 7.17603 20.6658 7.96817 20.4206C8.81978 20.1569 8.8982 19.1258 9.33691 18.8591C9.61638 18.6892 9.55042 19.0153 9.59615 19.5534C9.67054 20.432 9.93028 23.9204 10.6804 23.8914H14.0856C14.2477 23.8909 14.3966 23.8322 14.5126 23.7327C14.6277 23.6335 14.7094 23.4929 14.7372 23.3291C15.0195 21.67 15.4962 18.6808 16.1722 17.4532L16.2994 17.2271C17.1888 15.6798 18.3648 14.2999 19.7526 12.6715C19.8785 12.5239 20.0457 12.2952 20.1763 12.1415C20.2164 12.0947 20.2291 12.0349 20.2124 11.9747C20.1956 11.9145 20.1538 11.8703 20.0955 11.8512C19.5945 11.6893 19.1822 11.5367 18.9371 11.3211C18.911 11.2985 18.9005 11.2646 18.9089 11.2304C18.9174 11.1964 18.9423 11.1721 18.9759 11.1647C21.2345 10.6794 22.0544 9.47666 22.6474 7.79522C22.9723 6.87392 23.0737 5.94246 22.9541 5.04352C22.8352 4.14942 22.4974 3.28268 21.9426 2.485C21.6625 2.0821 21.3572 1.74161 21.0344 1.45578C19.2946 -0.0831075 16.0563 -0.560017 13.9509 0.799977C13.7758 0.913053 14.0306 1.41342 14.1326 1.35775C16.248 0.199281 19.9658 0.86568 19.7984 3.55973C19.7906 3.68438 19.7663 3.81232 19.7265 3.93955C19.8962 3.97205 20.0616 3.99567 20.2177 3.99911C20.2935 4.00067 20.3579 4.03088 20.4089 4.08827C20.4599 4.1458 20.4826 4.21451 20.477 4.2915L20.4744 4.32258C20.4635 4.46498 20.3463 4.57333 20.2064 4.56989C19.9358 4.5636 19.6935 4.53484 19.4471 4.49089C19.3873 4.57333 19.3199 4.65234 19.246 4.72633C19.4672 4.79118 19.6715 4.86702 19.8421 4.95274C19.9566 5.01029 20.0143 5.1394 19.9817 5.26505C19.9707 5.30814 19.9598 5.35035 19.9487 5.39257C19.9286 5.47028 19.8815 5.52898 19.8111 5.56448C19.7405 5.60011 19.6659 5.60224 19.5931 5.57134C19.242 5.42206 18.849 5.29998 18.4654 5.2018C18.244 5.2715 17.9991 5.30341 17.7339 5.28481C17.4174 5.2622 17.0727 5.16773 16.7064 4.97852C14.7733 3.97864 12.4403 3.27235 10.4627 3.22352C9.58182 3.20206 8.77565 3.31212 8.11561 3.58706C6.7612 4.15096 6.46944 5.19632 6.39568 6.47632C6.51481 8.85164 7.13395 10.5004 7.99044 11.5683C8.60594 12.3355 9.34537 12.8013 10.1066 13.0204C10.8666 13.2389 11.6504 13.2126 12.3548 12.9961C13.0902 12.7697 13.7362 12.3364 14.1733 11.7594C14.2839 11.6136 14.4826 11.5774 14.6365 11.675L14.6393 11.6768C14.7276 11.7328 14.7827 11.8152 14.8013 11.9197C14.82 12.0237 14.7969 12.1203 14.7338 12.2039C14.2056 12.9003 13.4343 13.4204 12.5605 13.6893C11.7345 13.9436 10.8136 13.9739 9.91921 13.7165C9.02575 13.4594 8.1604 12.9162 7.44452 12.0237C6.59231 10.9612 5.95376 9.80715 5.74313 7.74104C4.01719 8.50578 0.724206 9.71194 0.179871 12.4152C-0.32984 14.9446 0.322688 21.2174 1.14991 23.7038C1.1778 23.7877 1.27538 23.8164 1.36256 23.8173L1.36257 23.8176ZM16.0657 6.42043C15.6929 6.72743 15.6355 7.28661 15.9378 7.66965C16.24 8.05264 16.1213 7.41058 16.4941 7.10372C16.8672 6.79671 17.5906 6.94085 17.2885 6.55813C16.986 6.17513 16.4387 6.11371 16.0657 6.42044V6.42043ZM15.3795 23.8908H17.0992C17.5463 23.8936 17.8392 23.8827 17.6761 23.377C17.296 22.1984 16.4761 20.2628 16.294 18.82C15.9016 19.714 15.7067 22.3561 15.5157 23.4777C15.4889 23.636 15.4511 23.7575 15.3795 23.8908Z" fill="#E65846"/>
</svg>
